<?xml version="1.0" encoding="UTF-8"?>
<svg width="30px" height="16px" viewBox="0 0 30 16" version="1.1" xmlns="http://www.w3.org/2000/svg" xmlns:xlink="http://www.w3.org/1999/xlink">
    <!-- Generator: Sketch 60 (88103) - https://sketch.com -->
    <title>down-arrow</title>
    <desc>Created with Sketch.</desc>
    <g id="Page-1" stroke="none" stroke-width="1" fill="none" fill-rule="evenodd">
        <g id="Desktop" transform="translate(-625.000000, -612.000000)" fill-rule="nonzero">
            <g id="down-arrow" transform="translate(625.000000, 612.000000)">
                <path d="M28.3396794,0.211739995 L14.7127797,13.8398997 L1.08587998,0.211739995 C0.831659981,-0.0338399992 0.42647999,-0.0267599994 0.180899996,0.227459995 C-0.0586199987,0.475499989 -0.0586199987,0.868679981 0.180899996,1.11665998 L14.2609197,15.1966797 C14.5108197,15.4465197 14.9159397,15.4465197 15.1658997,15.1966797 L29.2459193,1.11665998 C29.5001393,0.871079981 29.5071593,0.46595999 29.2616393,0.211679995 C29.0160594,-0.042539999 28.6109394,-0.0495599989 28.3566594,0.195959996 C28.3513194,0.201119996 28.3460994,0.206339995 28.3409394,0.211679995 L28.3396794,0.211739995 Z" id="Path" fill="#FFC107"></path>
                <path d="M14.7127797,15.3849007 C14.5429197,15.3851997 14.3798997,15.3179997 14.2596597,15.1979997 L0.179639996,1.11797998 C-0.0659399985,0.863759981 -0.0588599987,0.45857999 0.195359996,0.212999995 C0.44339999,-0.0265199994 0.836579981,-0.0265199994 1.08455998,0.212999995 L14.7127197,13.8398997 L28.3396194,0.211739995 C28.5851994,-0.0424799991 28.9903194,-0.0494999989 29.2445993,0.196019996 C29.4988193,0.44159999 29.5058393,0.846719981 29.2603193,1.10099998 C29.2551593,1.10633998 29.2499393,1.11155998 29.2445993,1.11671998 L15.1646397,15.1967397 C15.0448797,15.3168597 14.8823397,15.3844797 14.7127797,15.3849007 Z" id="Path" fill="#FFFFFF"></path>
            </g>
        </g>
    </g>
</svg>