<?xml version="1.0" encoding="UTF-8"?>
<svg width="4px" height="8px" viewBox="0 0 4 8" version="1.1" xmlns="http://www.w3.org/2000/svg" xmlns:xlink="http://www.w3.org/1999/xlink">
    <!-- Generator: Sketch 60 (88103) - https://sketch.com -->
    <title>Group 9</title>
    <desc>Created with Sketch.</desc>
    <defs>
        <polygon id="path-1" points="0 0.0942358491 1.57221913 0.0942358491 1.57221913 4.91263208 0 4.91263208"></polygon>
        <polygon id="path-3" points="0.0818389331 0.0813888889 0.923350368 0.0813888889 0.923350368 2.48887037 0.0818389331 2.48887037"></polygon>
    </defs>
    <g id="Page-1" stroke="none" stroke-width="1" fill="none" fill-rule="evenodd">
        <g id="Group-9">
            <path d="M2.06750812,3.5 C2.06478629,3.5127253 2.06187674,3.51908794 2.05915491,3.51908794 C2.05643308,3.51908794 2.05371125,3.5127253 2.05089556,3.5 C2.05615151,3.6106341 1.94511958,3.75982395 1.89622047,3.85336438 C1.77805546,4.078906 1.64937856,4.29893967 1.51291158,4.51356033 C1.35354368,4.76436262 1.13232452,5.00509863 1.00740186,5.26473266 C0.88623345,5.51667453 0.847095397,5.80612753 0.894680512,6.08200055 C0.977461718,6.5617632 1.32641923,6.97875406 1.80095639,7.09423137 C1.88636557,7.11502869 1.97261946,7.125 2.05784092,7.125 C2.43833413,7.125 2.80221478,6.92652337 3.02296466,6.60345279 C3.37154675,6.09330137 3.31466986,5.36482566 2.88030317,4.92361875 C2.66865735,4.62352968 2.47221623,4.31213979 2.29539107,3.98973397 C2.22743915,3.86580478 2.06121975,3.64871503 2.06750812,3.5" id="Fill-1-Copy" fill="#1C204E"></path>
            <path d="M3.10087923,1.25 C2.62973544,1.81444684 2.90552035,2.76726498 3.28608376,3.28961298 C3.71768849,3.88231535 4.05943174,4.65716159 3.99131673,5.41949194 C3.93039064,6.10198621 3.51145637,6.63865162 2.97974594,7 C3.47946568,6.64509919 3.65820019,5.96288937 3.53023743,5.36345497 C3.39841062,4.74515195 3.02431724,4.29107234 2.67879982,3.79517834 C2.47876814,3.50816665 2.32663264,3.1618942 2.26993004,2.81031199 C2.15769304,2.11463813 2.53097767,1.56602576 3.10087923,1.25" id="Fill-3-Copy" fill="#EA2627"></path>
            <g id="Group-7-Copy" transform="translate(0.000000, 2.125000)">
                <mask id="mask-2" fill="white">
                    <use xlink:href="#path-1"></use>
                </mask>
                <g id="Clip-6"></g>
                <path d="M0.852213194,0.0942358491 C1.41473403,0.275745283 1.71030347,0.821122642 1.50898403,1.41319811 C1.39604653,1.74565094 1.19436597,1.97933019 0.999727083,2.25234906 C0.760761806,2.58734906 0.557095139,2.96706604 0.467178472,3.37716038 C0.335734028,3.97678302 0.532900694,4.53536792 0.998192361,4.91263208 C0.582011806,4.68470755 0.232275694,4.26791509 0.0836784722,3.80282075 C-0.0687104167,3.3255566 0.000713194444,2.81404717 0.181539583,2.35640566 C0.255747917,2.16857547 0.338803472,1.96933019 0.465914583,1.81442453 C0.567386806,1.69083962 0.667865972,1.56914151 0.755796528,1.43414151 C1.00667847,1.04885849 1.24383819,0.473198113 0.852213194,0.0942358491" id="Fill-5" fill="#EA2627" mask="url(#mask-2)"></path>
            </g>
            <g id="Group-10-Copy" transform="translate(1.125000, 0.000000)">
                <mask id="mask-4" fill="white">
                    <use xlink:href="#path-3"></use>
                </mask>
                <g id="Clip-9"></g>
                <path d="M0.35493,0.0813703704 C0.35493,0.0813703704 1.18023,0.621833333 0.84193,1.24359259 C0.84193,1.24359259 0.27623,2.00303704 0.79223,2.48887037 C0.79223,2.48887037 -0.33437,1.97183333 0.24993,1.28507407 C0.24993,1.28507407 0.87063,0.702018519 0.35493,0.0813703704" id="Fill-8" fill="#EA2627" mask="url(#mask-4)"></path>
            </g>
        </g>
    </g>
</svg>