<?xml version="1.0" encoding="UTF-8"?>
<svg width="21px" height="18px" viewBox="0 0 21 18" version="1.1" xmlns="http://www.w3.org/2000/svg" xmlns:xlink="http://www.w3.org/1999/xlink">
    <!-- Generator: Sketch 46.2 (44496) - http://www.bohemiancoding.com/sketch -->
    <title>gallery</title>
    <desc>Created with Sketch.</desc>
    <defs></defs>
    <g id="Page-1" stroke="none" stroke-width="1" fill="none" fill-rule="evenodd">
        <g id="News/gallery" transform="translate(-224.000000, -528.000000)" fill-rule="nonzero" fill="#FFFFFF">
            <g id="gallery" transform="translate(224.231250, 528.937891)">
                <path d="M19.2956335,0.0155945419 L3.32682261,0.0155945419 C2.95988304,0.0155945419 2.6614425,0.313996101 2.6614425,0.680974659 L2.6614425,1.34635478 L1.99610136,1.34635478 C1.62916179,1.34635478 1.33072125,1.64475634 1.33072125,2.01173489 L1.33072125,2.67711501 L0.665380117,2.67711501 C0.298401559,2.67707602 0,2.97547758 0,3.34241715 L0,16.317076 C0,16.6840156 0.298401559,16.9824561 0.665380117,16.9824561 L16.634191,16.9824561 C17.0011306,16.9824561 17.2995712,16.6840546 17.2995712,16.317076 L17.2995712,15.6516959 L17.9649123,15.6516959 C18.3318519,15.6516959 18.6302924,15.3532943 18.6302924,14.9863158 L18.6302924,14.3209357 L19.2956725,14.3209357 C19.6626121,14.3209357 19.9610526,14.0225341 19.9610526,13.6555556 L19.9610526,0.680896686 C19.9610136,0.313996101 19.6626121,0.0155945419 19.2956335,0.0155945419 Z M0.665380117,3.34241715 L16.634191,3.34241715 L16.6345419,10.7745809 L14.888616,8.7791423 C14.7618713,8.63407407 14.514347,8.63407407 14.3876023,8.7791423 L12.2797271,11.1881092 L6.54187135,6.08807018 C6.41578947,5.97563353 6.22615984,5.97563353 6.10007797,6.08807018 L0.665380117,10.9189474 L0.665380117,3.34241715 Z M16.6348538,15.3220273 L16.6348538,16.317076 L0.665380117,16.317076 L0.665380117,11.808577 L6.32101365,6.78140351 L12.0884211,11.9077193 C12.154308,11.9665887 12.2421053,11.9932164 12.3302924,11.9912281 C12.4191033,11.985575 12.5016374,11.9449903 12.5598441,11.8781287 L14.6381287,9.5034308 L16.6345809,11.7853021 L16.6348928,15.3164133 C16.6348928,15.317076 16.63423,15.3180897 16.63423,15.3190643 C16.63423,15.320039 16.6348538,15.3210526 16.6348538,15.3220273 Z M17.9649123,14.9863548 L17.2995322,14.9863548 L17.2995322,3.34241715 C17.2995322,2.97547758 17.0011306,2.67703704 16.634152,2.67703704 L1.99610136,2.67703704 L1.99610136,2.01169591 L17.9649123,2.01169591 L17.9649123,14.9863548 Z M19.2956335,13.6556335 L18.6302534,13.6556335 L18.6302534,2.01169591 C18.6302534,1.64475634 18.3318519,1.34631579 17.9648733,1.34631579 L3.32682261,1.34631579 L3.32682261,0.680974659 L19.2956335,0.680974659 L19.2956335,13.6556335 Z" id="Shape"></path>
                <path d="M11.9766082,5.33851852 C11.2426901,5.33851852 10.6458869,5.93536062 10.6458869,6.66923977 C10.6458869,7.40311891 11.2426901,8 11.9766082,8 C12.7105263,8 13.3073294,7.40315789 13.3073294,6.66927875 C13.3073294,5.93539961 12.7105263,5.33851852 11.9766082,5.33851852 Z M11.9766082,7.33461988 C11.6096686,7.33461988 11.3112281,7.03621832 11.3112281,6.66923977 C11.3112281,6.30230019 11.6096296,6.00385965 11.9766082,6.00385965 C12.3435867,6.00385965 12.6419883,6.30226121 12.6419883,6.66923977 C12.6419883,7.03621832 12.3435478,7.33461988 11.9766082,7.33461988 Z" id="Shape"></path>
            </g>
        </g>
    </g>
</svg>