<?xml version="1.0" encoding="UTF-8"?>
<svg width="55px" height="60px" viewBox="0 0 55 60" version="1.1" xmlns="http://www.w3.org/2000/svg" xmlns:xlink="http://www.w3.org/1999/xlink">
    <!-- Generator: Sketch 60 (88103) - https://sketch.com -->
    <title>chilled-water</title>
    <desc>Created with Sketch.</desc>
    <g id="Page-1" stroke="none" stroke-width="1" fill="none" fill-rule="evenodd">
        <g id="Desktop" transform="translate(-533.000000, -871.000000)">
            <g id="Specialists" transform="translate(165.000000, 721.000000)">
                <g id="Group-55" transform="translate(0.000000, 150.000000)">
                    <g id="Chilled-Water" transform="translate(340.000000, 0.000000)">
                        <g id="chilled-water" transform="translate(28.000000, 0.000000)">
                            <path d="M21.2859203,52.6782408 C20.9979203,51.9246408 19.9275203,51.7086408 19.3739203,52.2990408 C18.7131203,52.9390408 19.0683203,54.1118408 19.9739203,54.2766408 C20.8715203,54.4734408 21.6523203,53.5198408 21.2859203,52.6782408" id="Fill-33" fill="#DA3235"></path>
                            <path d="M16.9000001,51.5313608 C11.1240002,49.7345607 7.24400011,44.4609607 7.24400011,38.4065606 C7.24400011,35.4481605 8.17040012,32.6289605 9.92400015,30.2529605 C9.96400015,30.1985604 9.99920015,30.1393604 10.0296001,30.0801604 C10.3192002,29.5009604 10.0840002,28.7969604 9.50480014,28.5073604 C8.98000013,28.2449604 8.35280012,28.4129604 8.02480012,28.8769604 C5.98000009,31.6545605 4.90000007,34.9489605 4.90000007,38.4065606 C4.90000007,41.9073606 6.00400009,45.2369607 8.09680012,48.0321607 C10.1176002,50.7345608 12.9976002,52.7729608 16.2040002,53.7697608 C16.3192002,53.8065608 16.4360002,53.8241608 16.5528002,53.8241608 C17.0520003,53.8241608 17.5160003,53.5009608 17.6712003,52.9985608 C17.8648003,52.3809608 17.5192003,51.7233608 16.9000001,51.5313608" id="Fill-34" fill="#DA3235"></path>
                            <path d="M41.2672006,38.0736006 C41.2672006,48.8048007 32.5360005,57.5344009 21.8064003,57.5344009 C11.0752002,57.5344009 2.34560003,48.8048007 2.34560003,38.0736006 C2.34560003,33.8816005 3.65760005,29.8896004 6.13920009,26.5264004 C6.15360009,26.5072004 6.16640009,26.4864004 6.18080009,26.4672004 L21.8064003,3.27200005 L31.0352005,16.9712003 L34.0832005,20.5616003 C36.2224005,23.5072004 36.4064005,23.8880004 37.4624006,25.8544004 C38.2880006,27.3936004 38.8512006,27.6944004 40.1280006,31.9728005 C40.6064006,33.5808005 40.8032006,34.0384005 41.2176006,36.6976005 C41.2496006,37.1552006 41.2672006,37.6144006 41.2672006,38.0736006 M41.2672006,29.3456004 C40.2400006,26.5296004 39.8656006,25.8496004 39.3008006,24.8032004 L38.7008006,23.5072004 C38.4832006,23.1840003 37.9536006,21.8368003 37.0112006,20.2608003 C36.8112005,19.9264003 37.2016006,20.5856003 36.3008005,19.2016003 L32.4496005,14.8720002 L22.7792003,0.516800008 C22.5616003,0.193600003 22.1968003,-2.13162821e-14 21.8064003,-2.13162821e-14 C21.4160003,-2.13162821e-14 21.0512003,0.193600003 20.8336003,0.516800008 L4.23360006,25.1600004 C1.46400002,28.9232004 1.42108547e-14,33.3888005 1.42108547e-14,38.0736006 C1.42108547e-14,50.0976007 9.78240015,59.8800009 21.8064003,59.8800009 C33.8304005,59.8800009 43.6128006,50.0976007 43.6128006,38.0736006 C43.6128006,37.1136006 43.5488006,36.1520005 43.4240006,35.2048005 C43.4240006,35.2048005 42.3328006,32.2624005 41.2672006,29.3456004" id="Fill-35" fill="#1C224E"></path>
                            <path d="M54.0875208,26.1712004 C54.0875208,33.4944005 48.1515207,39.4304006 40.8283206,39.4304006 C33.5067205,39.4304006 27.5707204,33.4944005 27.5707204,26.1712004 C27.5707204,18.8480003 33.5067205,12.9120002 40.8283206,12.9120002 C48.1515207,12.9120002 54.0875208,18.8480003 54.0875208,26.1712004" id="Fill-36" fill="#1C224E"></path>
                            <path d="M52.3569608,26.1712004 C52.3569608,32.5376005 47.1953607,37.6992006 40.8289606,37.6992006 C34.4609605,37.6992006 29.3009604,32.5376005 29.3009604,26.1712004 C29.3009604,19.8048003 34.4609605,14.6432002 40.8289606,14.6432002 C47.1953607,14.6432002 52.3569608,19.8048003 52.3569608,26.1712004" id="Fill-37" fill="#FEFEFE"></path>
                            <polygon id="Fill-38" fill="#1C224E" points="37.6937606 27.5376004 39.6073606 27.5376004 39.6073606 29.4528004 36.6153605 32.4448005 38.5481606 34.3776005 40.9753606 31.9520005 43.4009606 34.3776005 45.3353607 32.4448005 42.3417606 29.4528004 42.3417606 27.5376004 44.2569607 27.5376004 47.2489607 30.5312005 49.1833607 28.5984004 46.7561607 26.1712004 49.1833607 23.7440004 47.2489607 21.8112003 44.2569607 24.8048004 42.3417606 24.8048004 42.3417606 22.8896003 45.3353607 19.8960003 43.4009606 17.9632003 40.9753606 20.3904003 38.5481606 17.9632003 36.6153605 19.8960003 39.6073606 22.8896003 39.6073606 24.8048004 37.6937606 24.8048004 34.7001605 21.8112003 32.7673605 23.7440004 35.1945605 26.1712004 32.7673605 28.5984004 34.7001605 30.5312005"></polygon>
                        </g>
                    </g>
                </g>
            </g>
        </g>
    </g>
</svg>