<?xml version="1.0" encoding="UTF-8"?>
<svg width="70px" height="59px" viewBox="0 0 70 59" version="1.1" xmlns="http://www.w3.org/2000/svg" xmlns:xlink="http://www.w3.org/1999/xlink">
    <!-- Generator: Sketch 60 (88103) - https://sketch.com -->
    <title>compressed-air</title>
    <desc>Created with Sketch.</desc>
    <g id="Page-1" stroke="none" stroke-width="1" fill="none" fill-rule="evenodd">
        <g id="Desktop" transform="translate(-327.000000, -872.000000)">
            <g id="Specialists" transform="translate(165.000000, 721.000000)">
                <g id="Group-55" transform="translate(0.000000, 150.000000)">
                    <g id="Compressed-Air" transform="translate(131.000000, 1.000000)">
                        <g id="compressed-air" transform="translate(31.000000, 0.000000)">
                            <path d="M66.432001,32.7934405 C66.432001,40.9342406 59.9104009,47.5342407 51.8672008,47.5342407 L17.5008003,47.5342407 C9.45760014,47.5342407 2.93600004,40.9342406 2.93600004,32.7934405 C2.93600004,24.6526404 9.45760014,18.0542403 17.5008003,18.0542403 L51.8672008,18.0542403 C59.9104009,18.0542403 66.432001,24.6526404 66.432001,32.7934405 M51.8960008,15.3214402 L17.4720003,15.3214402 C7.82400012,15.3214402 1.42108547e-14,23.1438403 1.42108547e-14,32.7934405 C1.42108547e-14,42.4430406 7.82400012,50.2654407 17.4720003,50.2654407 L51.8960008,50.2654407 C61.5440009,50.2654407 69.366401,42.4430406 69.366401,32.7934405 C69.366401,23.1438403 61.5440009,15.3214402 51.8960008,15.3214402" id="Fill-41" fill="#1C224E"></path>
                            <path d="M43.9953607,7.15216011 L26.2945604,7.15216011 C25.3969604,7.15216011 24.6705604,7.87856012 24.6705604,8.77616013 L24.6705604,17.1153603 L27.1201604,17.1153603 L27.1201604,9.81136015 L43.1697606,9.81136015 L43.1697606,17.1153603 L45.6193607,17.1153603 L45.6193607,8.77616013 C45.6193607,7.87856012 44.8929607,7.15216011 43.9953607,7.15216011" id="Fill-42" fill="#1C224E"></path>
                            <path d="M51.2656008,11.0560002 L44.7648007,11.0560002 C43.8672007,11.0560002 43.1408006,11.7840002 43.1408006,12.6800002 L43.1408006,16.2192002 L45.5904007,16.2192002 L45.5904007,13.7152002 L50.4400008,13.7152002 L50.4400008,16.2192002 L52.8896008,16.2192002 L52.8896008,12.6800002 C52.8896008,11.7840002 52.1632008,11.0560002 51.2656008,11.0560002" id="Fill-43" fill="#1C224E"></path>
                            <path d="M16.6867202,3.04672005 L9.82112015,3.04672005 C8.98112013,3.04672005 8.29792012,2.36512004 8.29792012,1.52352002 C8.29792012,0.68192001 8.98112013,0.000320000005 9.82112015,0.000320000005 L16.6867202,0.000320000005 C17.5267203,0.000320000005 18.2099203,0.68192001 18.2099203,1.52352002 C18.2099203,2.36512004 17.5267203,3.04672005 16.6867202,3.04672005" id="Fill-44" fill="#1C224E"></path>
                            <path d="M18.2094403,1.52320002 L18.2094403,16.5312002 C18.2094403,17.3712003 17.5278403,18.0544003 16.6862402,18.0544003 C15.8446402,18.0544003 15.1646402,17.3712003 15.1646402,16.5312002 L15.1646402,1.52320002 C15.1646402,0.68320001 15.8446402,-6.03961325e-14 16.6862402,-6.03961325e-14 C17.5278403,-6.03961325e-14 18.2094403,0.68320001 18.2094403,1.52320002" id="Fill-45" fill="#1C224E"></path>
                            <path d="M48.5929607,32.1544005 L20.7753603,32.1544005 C19.8729603,32.1544005 19.1417603,31.4232005 19.1417603,30.5208005 C19.1417603,29.6200004 19.8729603,28.8888004 20.7753603,28.8888004 L48.5929607,28.8888004 C49.4953607,28.8888004 50.2265607,29.6200004 50.2265607,30.5208005 C50.2265607,31.4232005 49.4953607,32.1544005 48.5929607,32.1544005" id="Fill-46" fill="#DA3235"></path>
                            <path d="M28.8000004,49.1865607 C28.8000004,54.2873608 24.6656004,58.4217609 19.5648003,58.4217609 C14.4640002,58.4217609 10.3296002,54.2873608 10.3296002,49.1865607 C10.3296002,44.0857607 14.4640002,39.9513606 19.5648003,39.9513606 C24.6656004,39.9513606 28.8000004,44.0857607 28.8000004,49.1865607" id="Fill-47" fill="#1C224E"></path>
                            <path d="M26.3164804,49.1865607 C26.3164804,52.9161608 23.2940803,55.9385608 19.5644803,55.9385608 C15.8348802,55.9385608 12.8124802,52.9161608 12.8124802,49.1865607 C12.8124802,45.4569607 15.8348802,42.4345606 19.5644803,42.4345606 C23.2940803,42.4345606 26.3164804,45.4569607 26.3164804,49.1865607" id="Fill-48" fill="#FEFEFE"></path>
                            <path d="M52.9772808,48.2036807 L52.9772808,53.3844808 L51.8204808,53.3844808 L49.0508807,48.2036807 L45.6188807,48.2036807 L48.9996807,55.6516808 C49.4108807,56.5556808 50.3100807,57.1364809 51.3036808,57.1364809 L53.7772808,57.1364809 C55.1740808,57.1364809 56.3068808,56.0036808 56.3068808,54.6068808 L56.3068808,48.2036807 L52.9772808,48.2036807 Z" id="Fill-49" fill="#1C224E"></path>
                        </g>
                    </g>
                </g>
            </g>
        </g>
    </g>
</svg>