<?xml version="1.0" encoding="UTF-8"?>
<svg width="56px" height="56px" viewBox="0 0 56 56" version="1.1" xmlns="http://www.w3.org/2000/svg" xmlns:xlink="http://www.w3.org/1999/xlink">
    <!-- Generator: Sketch 60 (88103) - https://sketch.com -->
    <title>general</title>
    <desc>Created with Sketch.</desc>
    <g id="Page-1" stroke="none" stroke-width="1" fill="none" fill-rule="evenodd">
        <g id="Desktop" transform="translate(-1054.000000, -873.000000)">
            <g id="Specialists" transform="translate(165.000000, 721.000000)">
                <g id="Group-55" transform="translate(0.000000, 150.000000)">
                    <g id="General" transform="translate(884.000000, 2.000000)">
                        <g id="general" transform="translate(5.000000, 0.000000)">
                            <path d="M0.123520002,5.11990461 L3.84512006,11.6335047 C3.97152006,11.8543047 4.18112006,12.0143047 4.42752007,12.0751047 L7.89952012,12.9439047 L19.8115203,24.8543049 L21.1283203,23.5391049 L9.02912013,11.4415047 C8.91072013,11.3215047 8.76032013,11.2367047 8.59872013,11.1967047 L5.26112008,10.3583047 L2.09152003,4.80950461 L4.80992007,2.09270456 L10.3603202,5.26550461 L11.1987202,8.60150466 C11.2387202,8.76630466 11.3235202,8.91510467 11.4419202,9.03510467 L23.5411204,21.1327048 L24.8563204,19.8159048 L12.9459202,7.90550465 L12.0771202,4.4335046 C12.0163202,4.1871046 11.8563202,3.97750459 11.6355202,3.85110459 L5.12192008,0.129504536 C4.75712007,-0.0784954675 4.30112006,-0.0160954666 4.00512006,0.278304538 L0.283520004,4.00150459 C-0.0172800003,4.2959046 -0.0812800012,4.7535046 0.123520002,5.11990461" id="Fill-50" fill="#1C224E"></path>
                            <polygon id="Fill-51" fill="#DA3235" points="38.8126406 18.3402248 18.3406403 38.8122251 17.0238403 37.4970251 37.4974406 17.0250248"></polygon>
                            <path d="M13.4329602,48.3919053 L8.90336013,48.3919053 L6.6681601,44.6703052 L8.90336013,40.9471051 L13.4329602,40.9471051 L15.6665602,44.6703052 L13.4329602,48.3919053 Z M14.7561602,39.5375051 C14.5897602,39.2575051 14.2857602,39.0863051 13.9593602,39.0863051 L8.37696012,39.0863051 C8.05056012,39.0863051 7.74656012,39.2575051 7.57856011,39.5375051 L4.78656007,44.1903052 C4.60896007,44.4847052 4.60896007,44.8543052 4.78656007,45.1487052 L7.57856011,49.8015053 C7.74656012,50.0815053 8.05056012,50.2527053 8.37696012,50.2527053 L13.9593602,50.2527053 C14.2857602,50.2527053 14.5897602,50.0815053 14.7561602,49.8015053 L17.5481603,45.1487052 C17.7257603,44.8543052 17.7257603,44.4847052 17.5481603,44.1903052 L14.7561602,39.5375051 Z" id="Fill-52" fill="#DA3235"></path>
                            <path d="M41.5408006,20.4301448 L20.4304003,41.5357452 C20.1984003,41.7677452 20.1056003,42.1037452 20.1840003,42.4205452 C21.4608003,47.4333452 18.4320003,52.5341453 13.4176002,53.8093453 C8.40320013,55.0877454 3.30400005,52.0573453 2.02720003,47.0429452 C0.750400011,42.0301452 3.77920006,36.9309451 8.79360013,35.6525451 C10.3104002,35.2669451 11.9008002,35.2669451 13.4176002,35.6525451 C13.7344002,35.7309451 14.0688002,35.6381451 14.3024002,35.4077451 L35.4064005,14.3005447 C35.6384005,14.0701447 35.7312005,13.7341447 35.6512005,13.4173447 C34.3824005,8.46214466 37.3728006,3.41734458 42.3280006,2.14854457 C43.2640006,1.91014456 44.2336007,1.81734456 45.1968007,1.87814456 L40.2880006,6.78854463 C40.0400006,7.03654464 39.9520006,7.40614464 40.0624006,7.74054465 L41.9232006,13.3245447 C42.0176006,13.6013447 42.2368006,13.8205447 42.5120006,13.9117447 L48.0976007,15.7725448 C48.4320007,15.8845448 48.8000007,15.7981448 49.0480007,15.5485448 L53.9584008,10.6397447 C53.9696008,10.8173447 53.9745194,10.9933447 53.9745194,11.1677447 C54.0000008,16.2813448 49.8768007,20.4477448 44.7648007,20.4749448 C43.9744007,20.4781448 43.1840006,20.3805448 42.4192006,20.1853448 C42.1024006,20.1053448 41.7664006,20.1981448 41.5344006,20.4301448 L41.5408006,20.4301448 Z M37.7824006,29.790145 C36.7520005,31.018945 36.9136006,32.850945 38.1424006,33.881345 C39.2240006,34.7869451 40.7968006,34.7853451 41.8768006,33.878145 L52.3200008,44.3309452 C52.4336008,44.4445452 52.5392008,44.5645452 52.6416008,44.6861452 L44.6864007,52.6429453 C44.5632007,52.5405453 44.4432007,52.4333453 44.3296007,52.3213453 L33.8784005,41.8685452 C34.9088005,40.6397451 34.7472005,38.8077451 33.5184005,37.7773451 C32.4384005,36.8717451 30.8624005,36.8717451 29.7840004,37.7789451 L28.2960004,36.2909451 L36.2944005,28.303745 L37.7824006,29.790145 Z M48.3248007,53.9757453 C47.6480007,53.9741453 46.9776007,53.8525453 46.3456007,53.6141453 L53.6144008,46.3469452 C54.7088008,49.2637453 53.2352008,52.5181453 50.3168007,53.6141453 C49.6800007,53.8541453 49.0048007,53.9757453 48.3248007,53.9757453 L48.3248007,53.9757453 Z M44.6688007,22.3357449 C50.8144008,22.3565449 55.8144008,17.3901448 55.8352008,11.2445447 C55.8384008,10.3085447 55.7232008,9.37734467 55.4944008,8.47014466 C55.3696008,7.97094465 54.8640008,7.66694465 54.3664008,7.79174465 C54.2016008,7.83174465 54.0512008,7.91654465 53.9328008,8.03654465 L48.1392007,13.8253447 L43.5440006,12.2941447 L42.0112006,7.69894465 L47.8032007,1.90374456 C48.1680007,1.54054456 48.1680007,0.951744548 47.8032007,0.588544542 C47.6832007,0.468544541 47.5328007,0.383744539 47.3680007,0.343744539 C41.4064006,-1.16665548 35.3520005,2.44134457 33.8416005,8.40134466 C33.6128005,9.30534467 33.4992005,10.2349447 33.5024005,11.1677447 C33.5056005,11.9005447 33.5792005,12.6317447 33.7280005,13.3485447 L13.3488002,33.729345 C12.6304002,33.580545 11.9008002,33.505345 11.1680002,33.502145 C5,33.502145 0,38.5021451 0,44.6701452 C0,50.8365453 5,55.8365454 11.1680002,55.8365454 C17.3344003,55.8365454 22.3344003,50.8365453 22.3344003,44.6701452 C22.3328003,43.9373452 22.2560003,43.2061452 22.1072003,42.4893452 L26.9872004,37.6093451 L29.1200004,39.7437451 C29.4848004,40.1069451 30.0736004,40.1069451 30.4384005,39.7437451 L30.9024005,39.2781451 C31.3104005,38.8733451 31.9712005,38.8733451 32.3776005,39.2781451 C32.7856005,39.6845451 32.7856005,40.3453451 32.3792005,40.7533451 C32.3792005,40.7533451 32.3776005,40.7533451 32.3776005,40.7549451 L31.9120005,41.2205451 C31.5504005,41.5837452 31.5504005,42.1725452 31.9120005,42.5357452 L43.0144006,53.6365453 C45.9344007,56.5837454 50.6896008,56.6045454 53.6368008,53.6845453 C56.5808008,50.7645453 56.6032008,46.0093452 53.6832008,43.0637452 C53.6672008,43.0461452 53.6512008,43.0301452 53.6368008,43.0141452 L42.5344006,31.913345 C42.1728006,31.550145 41.5824006,31.550145 41.2192006,31.913345 L40.7536006,32.378945 C40.3456006,32.785345 39.6864006,32.785345 39.2784006,32.378945 C38.8704006,31.972545 38.8688006,31.313345 39.2752006,30.905345 L39.2784006,30.903745 L39.7440006,30.438145 C40.1072006,30.074945 40.1072006,29.486145 39.7440006,29.122945 L37.6096006,26.9885449 L42.4880006,22.1085449 C43.2064006,22.2573449 43.9360007,22.3325449 44.6688007,22.3357449 L44.6688007,22.3357449 Z" id="Fill-53" fill="#1C224E"></path>
                            <polygon id="Fill-54" fill="#DA3235" points="48.1188807 46.8027852 46.8036807 48.1195853 37.4964806 38.8139851 38.8132806 37.4971851"></polygon>
                        </g>
                    </g>
                </g>
            </g>
        </g>
    </g>
</svg>