<?xml version="1.0" encoding="UTF-8"?>
<svg width="37px" height="51px" viewBox="0 0 37 51" version="1.1" xmlns="http://www.w3.org/2000/svg" xmlns:xlink="http://www.w3.org/1999/xlink">
    <!-- Generator: Sketch 60 (88103) - https://sketch.com -->
    <title>steam</title>
    <desc>Created with Sketch.</desc>
    <g id="Page-1" stroke="none" stroke-width="1" fill="none" fill-rule="evenodd">
        <g id="Desktop" transform="translate(-172.000000, -875.000000)">
            <g id="Specialists" transform="translate(165.000000, 721.000000)">
                <g id="Group-55" transform="translate(0.000000, 150.000000)">
                    <g id="Steam" transform="translate(0.000000, 8.000000)">
                        <g id="steam" transform="translate(11.000000, 0.000000)">
                            <path d="M20.0001513,16.0630402 C20.4273513,17.0566403 20.8993513,17.9862403 21.3793513,18.8646403 C21.8625513,19.7462403 22.3521513,20.5782403 22.8401513,21.3734403 L22.9281513,21.5158403 L22.9905513,21.6134403 L23.1137513,21.8054403 C23.1985513,21.9302403 23.2737513,22.0550403 23.3441513,22.1766403 C23.4209513,22.2966403 23.4897513,22.4134403 23.5553513,22.5302403 C23.6225513,22.6438403 23.6897513,22.7574403 23.7473513,22.8694403 C23.9921513,23.3158403 24.2017513,23.7414404 24.3681513,24.2294404 C24.5345513,24.7126404 24.6497513,25.2598404 24.6977513,25.8454404 C24.7473513,26.4310404 24.7313513,27.0438404 24.6801513,27.6278404 C24.6513513,27.9158404 24.6273513,28.2070404 24.5825513,28.4710404 C24.5457513,28.7430404 24.5057513,28.9990404 24.4609513,29.2326404 C24.3809513,29.7110404 24.2929513,30.1014404 24.2337513,30.3830405 C24.2033513,30.5254405 24.1793513,30.6326405 24.1633513,30.7062405 C24.1457513,30.7814405 24.1361513,30.8198405 24.1361513,30.8198405 C24.1361513,30.8198405 24.1761513,30.8214405 24.2545513,30.8230405 C24.3329513,30.8230405 24.4497513,30.8230405 24.5969513,30.8086405 C24.8961513,30.7878405 25.3185513,30.7190405 25.8449513,30.5686405 C26.1025513,30.4886405 26.3889514,30.3878405 26.6929514,30.2582405 C26.9873514,30.1206404 27.3169514,29.9654404 27.6449514,29.7622404 C28.3025514,29.3574404 29.0065514,28.7942404 29.6545514,28.0054404 C30.3009514,27.2214404 30.8833514,26.1974404 31.2353514,24.9750404 C31.5921514,23.7574404 31.6913514,22.3526403 31.4897514,20.9798403 C31.4369514,20.6374403 31.3697514,20.2982403 31.2913514,19.9606403 C31.2033514,19.6278403 31.1057514,19.2966403 30.9969514,18.9718403 C30.8801514,18.6502403 30.7537514,18.3318403 30.6177514,18.0246403 C30.5489514,17.8694403 30.4753514,17.7174403 30.4001514,17.5686403 L30.2865514,17.3446403 L30.1921514,17.1670403 C29.7057514,16.2582402 29.1729514,15.3766402 28.6337514,14.5430402 C27.5537514,12.8726402 26.4337514,11.4006402 25.5921513,10.1958402 C25.1649513,9.59264014 24.8097513,9.06144014 24.5217513,8.56064013 C24.2353513,8.05984012 24.0097513,7.57184011 23.8689513,7.0294401 C23.7249513,6.4918401 23.6769513,5.90784009 23.6769513,5.33984008 C23.6881513,5.05984008 23.7009513,4.78144007 23.7265513,4.51744007 C23.7553513,4.25664006 23.7841513,4.00384006 23.8161513,3.77504006 C23.8849513,3.31584005 23.9553513,2.93504004 24.0001513,2.66944004 C24.0449513,2.39904004 24.0705513,2.25504003 24.0705513,2.25504003 C24.0705513,2.25504003 23.9265513,2.29024003 23.6625513,2.37344004 C23.4033513,2.46304004 23.0209513,2.59904004 22.5681513,2.84064004 C22.3393513,2.96064004 22.0881513,3.10304005 21.8305513,3.28384005 C21.5665513,3.45984005 21.2881513,3.67104005 21.0097513,3.92704006 C20.4465513,4.43104007 19.8609513,5.12544008 19.3969512,6.05184009 C18.9297512,6.9702401 18.6209512,8.12544012 18.5553512,9.32704014 C18.4849512,10.5270402 18.6401512,11.7462402 18.9121512,12.8758402 C19.1857512,14.0118402 19.5745512,15.0694402 20.0001513,16.0630402 Z" id="Stroke-3" stroke="#1C224E" stroke-width="2.40000004" stroke-linecap="round" stroke-linejoin="round"></path>
                            <path d="M1.25103098,19.9280003 C1.70543098,21.4944003 2.23823099,22.9760003 2.795031,24.3840004 C3.35503101,25.7920004 3.93583102,27.1296004 4.51823102,28.4144004 L4.62223103,28.6432004 L4.69903103,28.8000004 L4.84783103,29.1120004 C4.95183103,29.3152004 5.03983103,29.5136004 5.12303103,29.7088004 C5.21743103,29.9024004 5.29743104,30.0912004 5.37423104,30.2784005 C5.45103104,30.4608005 5.53263104,30.6432005 5.59823104,30.8224005 C5.88143104,31.5360005 6.11663105,32.2144005 6.27663105,32.9744005 C6.43503105,33.7296005 6.50543105,34.5712005 6.46703105,35.4592005 C6.43343105,36.3440005 6.29423105,37.2608006 6.11023105,38.1232006 C6.01263105,38.5504006 5.92303105,38.9840006 5.80623104,39.3696006 C5.70223104,39.7696006 5.59343104,40.1472006 5.48303104,40.4896006 C5.27503104,41.1888006 5.06863103,41.7584006 4.92943103,42.1680006 C4.85743103,42.3760006 4.80143103,42.5344006 4.76303103,42.6416006 C4.72143103,42.7504006 4.70063103,42.8064006 4.70063103,42.8064006 C4.70063103,42.8064006 4.76143103,42.8144006 4.87823103,42.8304006 C4.99503103,42.8464006 5.17103103,42.8672006 5.39183104,42.8736006 C5.84463104,42.8960006 6.48943105,42.8736006 7.30703107,42.7456006 C7.71023107,42.6736006 8.15503108,42.5776006 8.63503109,42.4384006 C9.10223109,42.2880006 9.6254311,42.1184006 10.1534311,41.8720006 C11.2142311,41.3888006 12.3742311,40.6768006 13.4910312,39.6160006 C14.6062312,38.5616006 15.6686312,37.1360006 16.4254312,35.3712005 C17.1838312,33.6128005 17.5950312,31.5264005 17.5470312,29.4336004 C17.5326312,28.9104004 17.4974312,28.3904004 17.4398312,27.8688004 C17.3710312,27.3552004 17.2878312,26.8384004 17.1838312,26.3328004 C17.0686312,25.8288004 16.9390312,25.3296004 16.7918312,24.8432004 C16.7182312,24.5984004 16.6366312,24.3568004 16.5518312,24.1200004 L16.4222312,23.7632004 L16.3134312,23.4800003 C15.7534312,22.0272003 15.1198312,20.6064003 14.4686312,19.2576003 C13.1614312,16.5568002 11.7566311,14.1424002 10.7198311,12.1808002 C10.1918311,11.1952002 9.7598311,10.3344002 9.4206311,9.52960014 C9.08623109,8.72640013 8.83983109,7.95520012 8.72943109,7.11680011 C8.61263109,6.28320009 8.65103109,5.40160008 8.75663109,4.54880007 C8.82383109,4.13120006 8.89583109,3.71680006 8.98223109,3.32640005 C9.07343109,2.94080004 9.16303109,2.56800004 9.25583109,2.23040003 C9.4430311,1.55520002 9.6190311,0.998400015 9.7358311,0.608000009 C9.8542311,0.212800003 9.9182311,3.19744231e-14 9.9182311,3.19744231e-14 C9.9182311,3.19744231e-14 9.6958311,0.0272000004 9.2846311,0.102400002 C8.87983109,0.190400003 8.28303108,0.321600005 7.55823107,0.598400009 C7.19503106,0.736000011 6.79023106,0.900800013 6.36943105,1.12480002 C5.94223105,1.33920002 5.48623104,1.60320002 5.02223103,1.93440003 C4.08463102,2.58720004 3.078231,3.51840005 2.21103099,4.81920007 C1.33903098,6.10720009 0.660630967,7.78080012 0.340630962,9.56800014 C0.012630957,11.3536002 0.0174309571,13.2096002 0.21423096,14.9520002 C0.412630963,16.7040002 0.798230969,18.3616003 1.25103098,19.9280003" id="Fill-5" fill="#DA3235"></path>
                            <path d="M1.25103098,19.9280003 C1.70543098,21.4944003 2.23823099,22.9760003 2.795031,24.3840004 C3.35503101,25.7920004 3.93583102,27.1296004 4.51823102,28.4144004 L4.62223103,28.6432004 L4.69903103,28.8000004 L4.84783103,29.1120004 C4.95183103,29.3152004 5.03983103,29.5136004 5.12303103,29.7088004 C5.21743103,29.9024004 5.29743104,30.0912004 5.37423104,30.2784005 C5.45103104,30.4608005 5.53263104,30.6432005 5.59823104,30.8224005 C5.88143104,31.5360005 6.11663105,32.2144005 6.27663105,32.9744005 C6.43503105,33.7296005 6.50543105,34.5712005 6.46703105,35.4592005 C6.43343105,36.3440005 6.29423105,37.2608006 6.11023105,38.1232006 C6.01263105,38.5504006 5.92303105,38.9840006 5.80623104,39.3696006 C5.70223104,39.7696006 5.59343104,40.1472006 5.48303104,40.4896006 C5.27503104,41.1888006 5.06863103,41.7584006 4.92943103,42.1680006 C4.85743103,42.3760006 4.80143103,42.5344006 4.76303103,42.6416006 C4.72143103,42.7504006 4.70063103,42.8064006 4.70063103,42.8064006 C4.70063103,42.8064006 4.76143103,42.8144006 4.87823103,42.8304006 C4.99503103,42.8464006 5.17103103,42.8672006 5.39183104,42.8736006 C5.84463104,42.8960006 6.48943105,42.8736006 7.30703107,42.7456006 C7.71023107,42.6736006 8.15503108,42.5776006 8.63503109,42.4384006 C9.10223109,42.2880006 9.6254311,42.1184006 10.1534311,41.8720006 C11.2142311,41.3888006 12.3742311,40.6768006 13.4910312,39.6160006 C14.6062312,38.5616006 15.6686312,37.1360006 16.4254312,35.3712005 C17.1838312,33.6128005 17.5950312,31.5264005 17.5470312,29.4336004 C17.5326312,28.9104004 17.4974312,28.3904004 17.4398312,27.8688004 C17.3710312,27.3552004 17.2878312,26.8384004 17.1838312,26.3328004 C17.0686312,25.8288004 16.9390312,25.3296004 16.7918312,24.8432004 C16.7182312,24.5984004 16.6366312,24.3568004 16.5518312,24.1200004 L16.4222312,23.7632004 L16.3134312,23.4800003 C15.7534312,22.0272003 15.1198312,20.6064003 14.4686312,19.2576003 C13.1614312,16.5568002 11.7566311,14.1424002 10.7198311,12.1808002 C10.1918311,11.1952002 9.7598311,10.3344002 9.4206311,9.52960014 C9.08623109,8.72640013 8.83983109,7.95520012 8.72943109,7.11680011 C8.61263109,6.28320009 8.65103109,5.40160008 8.75663109,4.54880007 C8.82383109,4.13120006 8.89583109,3.71680006 8.98223109,3.32640005 C9.07343109,2.94080004 9.16303109,2.56800004 9.25583109,2.23040003 C9.4430311,1.55520002 9.6190311,0.998400015 9.7358311,0.608000009 C9.8542311,0.212800003 9.9182311,3.19744231e-14 9.9182311,3.19744231e-14 C9.9182311,3.19744231e-14 9.6958311,0.0272000004 9.2846311,0.102400002 C8.87983109,0.190400003 8.28303108,0.321600005 7.55823107,0.598400009 C7.19503106,0.736000011 6.79023106,0.900800013 6.36943105,1.12480002 C5.94223105,1.33920002 5.48623104,1.60320002 5.02223103,1.93440003 C4.08463102,2.58720004 3.078231,3.51840005 2.21103099,4.81920007 C1.33903098,6.10720009 0.660630967,7.78080012 0.340630962,9.56800014 C0.012630957,11.3536002 0.0174309571,13.2096002 0.21423096,14.9520002 C0.412630963,16.7040002 0.798230969,18.3616003 1.25103098,19.9280003 Z" id="Stroke-7" stroke="#FEFEFE" stroke-width="6.4000001"></path>
                            <path d="M1.17439097,20.0568003 C1.62719098,21.6232003 2.16159099,23.1048003 2.718391,24.5128004 C3.27839101,25.9208004 3.85759101,27.2584004 4.44159102,28.5416004 L4.54559102,28.7704004 L4.62079103,28.9288004 L4.77119103,29.2392004 C4.87359103,29.4424004 4.96319103,29.6424004 5.04479103,29.8376004 C5.13919103,30.0296004 5.21919103,30.2200005 5.29759104,30.4056005 C5.37439104,30.5896005 5.45599104,30.7704005 5.52159104,30.9512005 C5.80479104,31.6632005 6.03839105,32.3416005 6.19999105,33.1016005 C6.35839105,33.8584005 6.42719105,34.7000005 6.39039105,35.5880005 C6.35519105,36.4728005 6.21599105,37.3880006 6.03199105,38.2520006 C5.93599105,38.6792006 5.84639104,39.1112006 5.72959104,39.4984006 C5.62399104,39.8968006 5.51679104,40.2760006 5.40639104,40.6184006 C5.19679103,41.3176006 4.99199103,41.8872006 4.85279103,42.2968006 C4.77919103,42.5032006 4.72319103,42.6616006 4.68639103,42.7688006 C4.64479103,42.8776006 4.62399103,42.9336006 4.62399103,42.9336006 C4.62399103,42.9336006 4.68319103,42.9432006 4.79999103,42.9592006 C4.91679103,42.9752006 5.09279103,42.9960006 5.31519104,43.0024006 C5.76639104,43.0248006 6.41279105,43.0024006 7.23039106,42.8744006 C7.63199107,42.8024006 8.07839108,42.7064006 8.55679108,42.5672006 C9.02559109,42.4152006 9.5471911,42.2456006 10.0767911,42.0008006 C11.1375911,41.5160006 12.2975911,40.8056006 13.4143912,39.7448006 C14.5295912,38.6904006 15.5919912,37.2648006 16.3471912,35.4984005 C17.1071912,33.7400005 17.5183912,31.6536005 17.4703912,29.5608004 C17.4559912,29.0392004 17.4191912,28.5176004 17.3631912,27.9976004 C17.2943912,27.4824004 17.2095912,26.9672004 17.1055912,26.4600004 C16.9919912,25.9576004 16.8623912,25.4584004 16.7135912,24.9704004 C16.6415912,24.7256004 16.5599912,24.4840004 16.4751912,24.2488004 L16.3455912,23.8904004 L16.2367912,23.6072004 C15.6767912,22.1560003 15.0431912,20.7352003 14.3903912,19.3864003 C13.0831912,16.6840002 11.6783911,14.2696002 10.6415911,12.3096002 C10.1151911,11.3240002 9.6815911,10.4616002 9.3439911,9.65680014 C9.00799109,8.85520013 8.76159109,8.08240012 8.65119109,7.24560011 C8.53599108,6.4120001 8.57279108,5.52880008 8.67839109,4.67600007 C8.74719109,4.26000006 8.81919109,3.84400006 8.90559109,3.45360005 C8.99679109,3.06960005 9.08639109,2.69680004 9.17759109,2.35760004 C9.3647911,1.68400003 9.5423911,1.12560002 9.6591911,0.736800011 C9.7759911,0.340000005 9.8399911,0.128800002 9.8399911,0.128800002 C9.8399911,0.128800002 9.6175911,0.156000002 9.20639109,0.231200003 C8.80319109,0.317600005 8.20479108,0.450400007 7.47999107,0.727200011 C7.11679106,0.863200013 6.71199106,1.02960002 6.29279105,1.25200002 C5.86559104,1.46800002 5.40959104,1.73200003 4.94559103,2.06320003 C4.00639102,2.71600004 3.001591,3.64720005 2.13439099,4.94640007 C1.26239098,6.23600009 0.583990966,7.90960012 0.262390961,9.69520014 C-0.0656090441,11.4824002 -0.0608090441,13.3368002 0.137590959,15.0808002 C0.335990962,16.8328003 0.721590968,18.4888003 1.17439097,20.0568003 Z" id="Stroke-9" stroke="#1C224E" stroke-width="2.40000004" stroke-linecap="round" stroke-linejoin="round"></path>
                        </g>
                    </g>
                </g>
            </g>
        </g>
    </g>
</svg>