<?xml version="1.0" encoding="UTF-8"?>
<svg width="26px" height="60px" viewBox="0 0 26 60" version="1.1" xmlns="http://www.w3.org/2000/svg" xmlns:xlink="http://www.w3.org/1999/xlink">
    <!-- Generator: Sketch 60 (88103) - https://sketch.com -->
    <title>themal-oil</title>
    <desc>Created with Sketch.</desc>
    <g id="Page-1" stroke="none" stroke-width="1" fill="none" fill-rule="evenodd">
        <g id="Desktop" transform="translate(-910.000000, -871.000000)">
            <g id="Specialists" transform="translate(165.000000, 721.000000)">
                <g id="Group-55" transform="translate(0.000000, 150.000000)">
                    <g id="Thermal-Oil" transform="translate(710.000000, 0.000000)">
                        <g id="themal-oil" transform="translate(35.000000, 0.000000)">
                            <path d="M16.3237385,44.8081607 C15.9493385,44.1585607 15.4101385,43.6193606 14.7589385,43.2449606 L14.7589385,23.4305603 C14.7589385,22.2513603 13.8037385,21.2945603 12.6229385,21.2945603 C11.4437385,21.2945603 10.4885385,22.2513603 10.4885385,23.4305603 L10.4885385,43.2449606 C8.44533843,44.4241607 7.74613842,47.0369607 8.92533844,49.0785607 C10.1045385,51.1217608 12.7157385,51.8225608 14.7589385,50.6417608 C16.8021386,49.4625607 17.5013386,46.8513607 16.3237385,44.8081607" id="Fill-39" fill="#DA3235"></path>
                            <path d="M19.1082186,54.4768008 L19.1034186,54.4800008 C14.8650185,57.5760009 8.61061843,57.0256008 5.13541838,53.2496008 C4.16261836,52.1936008 3.47781835,50.9504008 3.13701835,49.6192007 C2.48421834,47.0976007 3.12101835,44.4464007 4.87461837,42.3824006 C5.19621838,42.0000006 5.36901838,41.5360006 5.36901838,41.0576006 L5.36901838,10.0592001 C5.36901838,6.3968001 8.70181843,3.42880005 12.8122185,3.42880005 C16.9242186,3.42880005 20.2570186,6.3968001 20.2570186,10.0592001 L20.2570186,41.0592006 C20.2570186,41.5376006 20.4314186,42.0032006 20.7530186,42.3856006 C23.9482187,46.1536007 23.2218186,51.4976008 19.1082186,54.4768008 M23.4938187,39.9616006 L23.4938187,10.6768002 C23.4874187,4.78240007 18.7114186,0.0064000001 12.8170185,1.42108547e-14 C6.92261841,0.0064000001 2.14501833,4.78240007 2.14021833,10.6768002 L2.14021833,39.9616006 C0.197818305,42.8608006 -0.459781705,46.4336007 0.321018307,49.8336007 C1.44581832,54.7168008 5.30181838,58.5040009 10.2058185,59.5360009 C11.0586185,59.7072009 11.9274185,59.7920414 12.7978185,59.7920414 C19.8682186,59.8096009 25.6122187,54.0928008 25.6298187,47.0240007 L25.6298187,46.9824007 C25.6282187,44.4832007 24.8842187,42.0400006 23.4938187,39.9616006" id="Fill-40" fill="#1C224E"></path>
                        </g>
                    </g>
                </g>
            </g>
        </g>
    </g>
</svg>