<svg xmlns="http://www.w3.org/2000/svg" viewBox="0 0 384 384.72"><defs><style>.cls-1{fill:#fefefe;}.cls-2{fill:#da3235;}.cls-3{fill:#1c224e;stroke:#1c224e;stroke-miterlimit:10;stroke-width:3px;}.cls-4{fill:#fdfdfd;}</style></defs><title>Asset 3</title><g id="Layer_2" data-name="Layer 2"><g id="Layer_1-2" data-name="Layer 1"><path class="cls-1" d="M308.36,384.67H265c2.94-4.93,1.29-9.6-.48-14.46C259,355.26,256,339.74,254.25,324a10.15,10.15,0,0,0-.62-3.29,4.34,4.34,0,0,0-4.41-2.84,4.22,4.22,0,0,0-3.92,3.45,10.43,10.43,0,0,0-.13,4.09c2.07,18.15,5.85,35.89,12.36,53,.83,2.2,2.88,3.77,2.94,6.28h-43.4c5.09-7.78,1.06-15.95.74-23.88-.39-9.57-1.67-19.1-1.79-28.69-.05-3.64-.59-7.2-.93-10.8-.22-2.39-1.49-4-4-4.1s-3.84,1.47-4.47,3.74a8.13,8.13,0,0,0-.25,2.6c1,18.15,2,36.3,4.25,54.36.32,2.65,2.49,4.26,2.73,6.77h-43.4c4.56-8.81,3.61-18.6,4.83-28,1.4-10.75,1.25-21.63,2.08-32.43a9.22,9.22,0,0,0-.3-3.7c-.69-2.11-2.06-3.46-4.38-3.36s-3.62,1.54-4,3.76a46.54,46.54,0,0,0-.81,6.31,427.49,427.49,0,0,1-3.84,49.15c-.43,3.4,1.94,5.46,2.63,8.25h-43.4c.43-2.88,2.46-5,3.46-7.68,6.22-16.7,9.8-34,11.84-51.61a14.51,14.51,0,0,0,.11-1.86c0-3.36-1.62-5.54-4.15-5.71s-4.57,1.74-4.91,5a206,206,0,0,1-12.21,52.65c-1.35,3.5.61,6.17,1.37,9.17H74.89c2.53-4.21,5.47-8.16,7.94-12.42A137.65,137.65,0,0,0,99.45,326a7.07,7.07,0,0,0-.11-4,4.35,4.35,0,0,0-4.08-2.79,4,4,0,0,0-4,2.28A11.44,11.44,0,0,0,90.18,325a121.92,121.92,0,0,1-17.8,46.48c-2.79,4.35-5.38,8.34-1.23,13.16H.06Q.06,193.92,0,3.14C0,1,.59.72,2.55.72Q192,.8,381.45.72c2,0,2.55.23,2.55,2.42q-.11,189.66,0,379.31c0,1.92-.5,2.27-2.32,2.27q-34.79-.11-69.57-.05c4.16-4.82,1.57-8.82-1.23-13.16A120.59,120.59,0,0,1,293.08,325c-.07-.37-.13-.73-.23-1.1-.91-3.64-2.79-5.2-5.6-4.66s-4.09,2.78-3.49,6.39c.8,4.79,1.88,9.54,3.11,14.25,3.65,14,10,26.81,17.58,39.08C305.66,381,308,382.15,308.36,384.67Z"/><path class="cls-2" d="M71.15,384.67c-4.41-3.6-4.77-5.54-1.6-10.35a125.62,125.62,0,0,0,19.71-49.83c.42-2.63,1.1-5.19,4-6.25,4.28-1.58,8.08,1.92,7.32,6.79a136.28,136.28,0,0,1-20,52.9c-1.59,2.49-3,5.16-5.64,6.74Z"/><path class="cls-2" d="M308.36,384.67c-5.27-4.27-7.95-10.38-11.07-16.08a131.49,131.49,0,0,1-14.53-43.2c-.64-4.06,1-6.82,4.29-7.36s5.95,1.22,6.64,5.38a130.43,130.43,0,0,0,20.6,51.85c2.59,3.87,1.93,6.05-2.19,9.41Z"/><path class="cls-2" d="M118.29,384.67c-3.6-2.75-3.75-6.06-2.16-10.11,6.52-16.67,10.12-34,11.91-51.81.43-4.31,2.72-6.57,6.31-6.24,3.36.31,5.27,2.84,4.87,7A212.57,212.57,0,0,1,126,380.4c-.71,1.83-2.18,2.85-3.26,4.27Z"/><path class="cls-2" d="M260.47,384.67a14.89,14.89,0,0,1-4-6.36A215.79,215.79,0,0,1,244.13,325a12.32,12.32,0,0,1,0-4.45,5.09,5.09,0,0,1,5.5-4.09c3.46.15,5.16,2.3,5.49,5.5.72,6.81,1.64,13.58,2.9,20.32a173.82,173.82,0,0,0,9.08,32.23c1.61,4,1.49,7.37-2.15,10.12Z"/><path class="cls-2" d="M166.18,384.67c-3.25-1.8-4.18-4.54-3.69-8.14,2.45-17.93,3.4-36,4.25-54,.22-4.7,2.4-7,6.1-6.72,3.47.28,5.28,2.89,5.09,7.35-.77,18.56-2.05,37.08-4.24,55.54a8.66,8.66,0,0,1-3.76,6Z"/><path class="cls-2" d="M213.33,384.67c-2.62-1.81-3.52-4.3-3.91-7.47-2.17-17.8-3.28-35.66-4.08-53.55a21,21,0,0,1-.06-2.24c.23-3.44,2.49-5.68,5.68-5.66s5.23,2,5.46,5.4c.49,7.45.88,14.9,1.26,22.35q.82,16.22,3,32.3c.52,3.77,0,6.9-3.62,8.87Z"/><path class="cls-3" d="M165.12,252.12H80.21c-16.41,0-26.55,10.13-26.64,26.52,0,3.74.2,7.49-.06,11.22-.2,2.86.75,3.5,3.53,3.49,21.44-.13,42.89-.07,64.34-.07,6,0,8.81,1.82,8.71,5.68s-2.89,5.54-8.94,5.54H38.48c-1.61,0-3.24.17-4.77-.59a5.3,5.3,0,0,1-3.19-5.77A5.2,5.2,0,0,1,35,293.37a6.15,6.15,0,0,1,.75-.06c6.55-.6,6.5-.6,6.56-7.09.06-6-.38-12,1-17.87C47.2,252.64,61,241.16,77.06,241c23.81-.24,47.63-.15,71.44,0,3.09,0,3.94-.75,3.91-3.87-.16-15.21,0-30.43-.11-45.64-.08-7.89,2.36-14.21,9.79-17.8,2.09-1,1.44-2.7,1.44-4.18q.06-56.11,0-112.23a25.43,25.43,0,0,1,.18-4.1,5.49,5.49,0,0,1,10.84,0,27.72,27.72,0,0,1,.2,4.47q0,54.24,0,108.49c0,6,0,6,6.16,6,8.1,0,16.21-.07,24.31,0,2.25,0,3.26-.31,3.26-3q-.12-76.89,0-153.76c0-2.17-.63-2.68-2.71-2.66q-14.2.17-28.42,0c-2.2,0-2.72.68-2.63,2.74.15,3.73.14,7.48,0,11.22s-2.58,6.14-5.75,6-5.32-2.44-5.39-6c-.12-6.35-.14-12.72,0-19.07.09-4.11,2.23-6.06,6.43-6.07q21.51-.06,43,0c4.41,0,6.4,2,6.62,6.28.06,1.12,0,2.25,0,3.37q0,78.93-.06,157.87c0,2.65.6,4.12,3.09,5.52,6.15,3.45,8.25,9.25,8.22,16.09-.07,14.34,0,28.68,0,43,0,7.21,0,7.21,7.15,7.21,5.24,0,10.47,0,15.71,0,4.5,0,6.85,2,6.85,5.56s-2.47,5.64-6.86,5.65Q209.45,252.14,165.12,252.12Z"/><path class="cls-3" d="M248.87,304.5H153.11a14.85,14.85,0,0,1-3.72-.2c-3-.79-4.7-2.81-4.39-6,.3-3,2.1-4.7,5.13-4.95,1.24-.1,2.49-.05,3.74-.05q85.84,0,171.69.09c3.57,0,4.39-1.07,4.18-4.35-.3-4.72.08-9.49-.27-14.21a24.19,24.19,0,0,0-23.9-22.64c-7.6-.15-15.21,0-22.82-.07-4.93-.06-7.79-3.87-6-7.81.81-1.83,2.17-3.28,4.19-3.27,10.45.09,21-1.19,31.34.7A35.14,35.14,0,0,1,340.66,274a146.85,146.85,0,0,1,.17,15.7c-.13,3.09,1,4,3.79,3.58a13.61,13.61,0,0,1,3,0c3,.26,4.83,1.95,5.12,4.95.32,3.2-1.36,5.24-4.39,6a16.33,16.33,0,0,1-4.09.21Z"/><path class="cls-1" d="M219.68,214.05c0,8-.07,15.95,0,23.92,0,2.23-.51,3-2.88,3-8.38,0-8.34.15-8.4-8.28a47.37,47.37,0,0,0-.52-8.93c-1.6-7.84-9.05-13.13-17.43-12.75a16.41,16.41,0,0,0-15.44,14.6,105.26,105.26,0,0,0-.23,12.31c0,2.16-.36,3-2.82,3.06-8.44,0-8.44.16-8.44-8.23q0-20.75,0-41.49c0-6.41,1.56-8,7.88-8q20.37,0,40.73,0c5.79,0,7.47,1.7,7.49,7.6C219.7,198.61,219.68,206.33,219.68,214.05Z"/><path class="cls-4" d="M186.16,233.29a55.31,55.31,0,0,1,.05-6.31,5,5,0,0,1,5.25-4.73c3.19-.07,5.33,1.61,5.57,4.78.3,4.07,1.07,8.46-.07,12.19s-5.51.87-8.35,1.63c-1.39.37-2.74.12-2.61-2,.11-1.86,0-3.72,0-5.59Z"/></g></g></svg>