<?xml version="1.0" encoding="UTF-8"?>
<svg width="47px" height="60px" viewBox="0 0 47 60" version="1.1" xmlns="http://www.w3.org/2000/svg" xmlns:xlink="http://www.w3.org/1999/xlink">
    <!-- Generator: Sketch 60 (88103) - https://sketch.com -->
    <title>warm-water</title>
    <desc>Created with Sketch.</desc>
    <g id="Page-1" stroke="none" stroke-width="1" fill="none" fill-rule="evenodd">
        <g id="Desktop" transform="translate(-722.000000, -871.000000)">
            <g id="Specialists" transform="translate(165.000000, 721.000000)">
                <g id="Group-55" transform="translate(0.000000, 150.000000)">
                    <g id="Warm-Water" transform="translate(528.000000, 0.000000)">
                        <g id="warm-water" transform="translate(29.000000, 0.000000)">
                            <path d="M21.2859203,52.6782408 C20.9979203,51.9246408 19.9259203,51.7086408 19.3739203,52.2990408 C18.7131203,52.9390408 19.0683203,54.1118408 19.9739203,54.2766408 C20.8699203,54.4734408 21.6523203,53.5198408 21.2859203,52.6782408" id="Fill-28" fill="#DA3235"></path>
                            <path d="M16.9000003,51.5313608 C11.1240002,49.7345607 7.24400011,44.4609607 7.24400011,38.4065606 C7.24400011,35.4481605 8.17040012,32.6289605 9.92240015,30.2529605 C9.96240015,30.1985604 9.99920015,30.1393604 10.0280001,30.0801604 C10.3192002,29.5009604 10.0824002,28.7969604 9.50480014,28.5073604 C8.98000013,28.2449604 8.35280012,28.4129604 8.02320012,28.8769604 C5.98000009,31.6545605 4.89840007,34.9489605 4.89840007,38.4065606 C4.89840007,41.9073606 6.00240009,45.2369607 8.09520012,48.0321607 C10.1176002,50.7345608 12.9960002,52.7729608 16.2024002,53.7697608 C16.3192002,53.8065608 16.4360002,53.8241608 16.5512002,53.8241608 C17.0520003,53.8241608 17.5144003,53.5009608 17.6696003,52.9985608 C17.8632003,52.3809608 17.5176003,51.7233608 16.9000003,51.5313608" id="Fill-29" fill="#DA3235"></path>
                            <path d="M41.2672006,38.0736006 C41.2672006,48.8048007 32.5360005,57.5344009 21.8064003,57.5344009 C11.0752002,57.5344009 2.34400003,48.8048007 2.34400003,38.0736006 C2.34400003,33.8816005 3.65600005,29.8896004 6.13920009,26.5264004 C6.15360009,26.5072004 6.16800009,26.4864004 6.17920009,26.4672004 L21.8064003,3.27200005 L31.0336005,16.9712003 L28.1536004,21.2480003 C26.8368004,23.0416003 26.1424004,25.1680004 26.1424004,27.4000004 C26.1424004,33.1376005 30.8112005,37.8064006 36.5488005,37.8064006 C38.2272006,37.8064006 39.8128006,37.4064006 41.2176006,36.6976005 C41.2496006,37.1552006 41.2672006,37.6144006 41.2672006,38.0736006 L41.2672006,38.0736006 Z M36.5488005,12.9824002 L42.9984006,22.5568003 C43.0112006,22.5776003 43.0256006,22.5968003 43.0384006,22.6160003 C44.0672007,24.0080004 44.6112007,25.6624004 44.6112007,27.4000004 C44.6112007,31.8448005 40.9936006,35.4608005 36.5488005,35.4608005 C32.1024005,35.4608005 28.4880004,31.8448005 28.4880004,27.4000004 C28.4880004,25.6624004 29.0320004,24.0080004 30.0576004,22.6160003 C30.0720004,22.5984003 30.0848004,22.5792003 30.0992004,22.5600003 L33.4192005,17.6304003 C33.4256005,17.6208003 33.4320005,17.6112003 33.4368005,17.6032003 L36.5488005,12.9824002 Z M46.9552007,27.4000004 C46.9552007,25.1680004 46.2592007,23.0416003 44.9440007,21.2480003 L37.5216006,10.2288002 C37.3024006,9.90560015 36.9392006,9.71200014 36.5488005,9.71200014 C36.1584005,9.71200014 35.7936005,9.90560015 35.5760005,10.2288002 L32.4480005,14.8720002 L22.7776003,0.516800008 C22.5616003,0.193600003 22.1952003,-2.13162821e-14 21.8064003,-2.13162821e-14 C21.4160003,-2.13162821e-14 21.0512003,0.193600003 20.8336003,0.516800008 L4.23360006,25.1600004 C1.46240002,28.9232004 0,33.3888005 0,38.0736006 C0,50.0976007 9.78080015,59.8800009 21.8064003,59.8800009 C33.8304005,59.8800009 43.6128006,50.0976007 43.6128006,38.0736006 C43.6128006,37.1136006 43.5488006,36.1520005 43.4240006,35.2048005 C45.5872007,33.2976005 46.9552007,30.5056005 46.9552007,27.4000004 L46.9552007,27.4000004 Z" id="Fill-30" fill="#1C224E"></path>
                            <path d="M32.4140805,27.1134404 C32.4140805,26.5454404 32.5292805,25.9966404 32.7580805,25.4830404 C33.0220805,24.8926404 32.7548805,24.1998404 32.1628805,23.9358404 C31.5724805,23.6734404 30.8780805,23.9390404 30.6156805,24.5310404 C30.2524805,25.3470404 30.0684804,26.2142404 30.0684804,27.1134404 C30.0684804,29.2414404 31.1260805,31.2190405 32.8972805,32.4046405 C33.0972805,32.5390405 33.3228805,32.6030405 33.5484805,32.6030405 C33.9260805,32.6030405 34.2972805,32.4190405 34.5228805,32.0814405 C34.8844805,31.5438405 34.7388805,30.8142405 34.2012805,30.4558405 C33.0828805,29.7070404 32.4140805,28.4574404 32.4140805,27.1134404" id="Fill-31" fill="#DA3235"></path>
                            <path d="M35.9312005,33.4736005 C36.6880005,33.9968005 37.7696006,33.4176005 37.7552006,32.4992005 C37.7712006,31.5792005 36.6864005,31.0000005 35.9312005,31.5232005 C35.2464005,31.9520005 35.2432005,33.0448005 35.9312005,33.4736005" id="Fill-32" fill="#DA3235"></path>
                        </g>
                    </g>
                </g>
            </g>
        </g>
    </g>
</svg>